<svg xmlns="http://www.w3.org/2000/svg" width="900" height="420" viewBox="0 0 900 420">
<rect width="100%" height="100%" fill="#FFFFFF"/>
<style>text{font-family:Arial,sans-serif;font-size:12px;fill:#111} .small{font-size:11px}.title{font-size:16px;font-weight:700}.axis{stroke:#333;stroke-width:1}.grid{stroke:#ddd;stroke-width:1}.time{fill:none;stroke:#540B0E;stroke-width:2.5}</style>
<text x="70" y="24" class="title">G5-T1 train-dev schedule/LR pilots (dev3)</text>
<line class="grid" x1="70" x2="780" y1="328.0" y2="328.0"/>
<text x="60" y="332.0" text-anchor="end">0.66</text>
<line class="grid" x1="70" x2="780" y1="263.1" y2="263.1"/>
<text x="60" y="267.1" text-anchor="end">0.67</text>
<line class="grid" x1="70" x2="780" y1="198.2" y2="198.2"/>
<text x="60" y="202.2" text-anchor="end">0.68</text>
<line class="grid" x1="70" x2="780" y1="133.3" y2="133.3"/>
<text x="60" y="137.3" text-anchor="end">0.69</text>
<line class="grid" x1="70" x2="780" y1="68.4" y2="68.4"/>
<text x="60" y="72.4" text-anchor="end">0.70</text>
<text x="792" y="332.0" class="small">14s</text>
<text x="792" y="248.6" class="small">16s</text>
<text x="792" y="165.1" class="small">18s</text>
<text x="792" y="81.7" class="small">20s</text>
<line class="axis" x1="70" x2="70" y1="36" y2="328"/>
<line class="axis" x1="70" x2="780" y1="328" y2="328"/>
<line class="grid" x1="70" x2="780" y1="68.4" y2="68.4" stroke="#540B0E" stroke-dasharray="5,4"/>
<rect x="97.2" y="249.7" width="63.9" height="78.3" fill="#335C67" opacity="0.88"/>
<text x="129.2" y="243.7" text-anchor="middle" class="small">0.672</text>
<text x="129.2" y="346" text-anchor="middle" class="small">10e/0.035</text>
<rect x="215.6" y="171.8" width="63.9" height="156.2" fill="#E09F3E" opacity="0.88"/>
<text x="247.5" y="165.8" text-anchor="middle" class="small">0.684</text>
<text x="247.5" y="346" text-anchor="middle" class="small">12e/0.035</text>
<rect x="333.9" y="115.6" width="63.9" height="212.4" fill="#9E2A2B" opacity="0.88"/>
<text x="365.8" y="109.6" text-anchor="middle" class="small">0.693</text>
<text x="365.8" y="346" text-anchor="middle" class="small">14e/0.030</text>
<rect x="452.2" y="87.0" width="63.9" height="241.0" fill="#540B0E" opacity="0.88"/>
<text x="484.2" y="81.0" text-anchor="middle" class="small">0.697</text>
<text x="484.2" y="346" text-anchor="middle" class="small">14e/0.035</text>
<rect x="570.5" y="107.4" width="63.9" height="220.6" fill="#335C67" opacity="0.88"/>
<text x="602.5" y="101.4" text-anchor="middle" class="small">0.694</text>
<text x="602.5" y="346" text-anchor="middle" class="small">14e/0.040</text>
<rect x="688.9" y="104.3" width="63.9" height="223.7" fill="#E09F3E" opacity="0.88"/>
<text x="720.8" y="98.3" text-anchor="middle" class="small">0.694</text>
<text x="720.8" y="346" text-anchor="middle" class="small">14e/0.045</text>
<polyline class="time" points="129.2,296.0 247.5,176.3 365.8,51.8 484.2,50.7 602.5,55.3 720.8,52.8"/>
<circle cx="129.2" cy="296.0" r="4" fill="#540B0E"/>
<circle cx="247.5" cy="176.3" r="4" fill="#540B0E"/>
<circle cx="365.8" cy="51.8" r="4" fill="#540B0E"/>
<circle cx="484.2" cy="50.7" r="4" fill="#540B0E"/>
<circle cx="602.5" cy="55.3" r="4" fill="#540B0E"/>
<circle cx="720.8" cy="52.8" r="4" fill="#540B0E"/>
<text x="70" y="402" class="small">Bars: train-dev mean val_acc. Line: mean timed training seconds. Dashed line: 0.700 target. Validation source: train_dev only.</text>
<text x="822" y="30" class="small" text-anchor="middle">time</text>
</svg>
